<svg width="1000" height="300" viewBox="0 0 1000 300" fill="none" xmlns="http://www.w3.org/2000/svg">
<rect width="1000" height="300" fill="none"/>
<path d="M25 225.998H50.5482V230.564H40.0572V257.939H35.491V230.564H25V225.998Z" fill="white"/>
<path d="M62.6599 238.605V257.939H58.2942V234.217H62.6599V238.405C62.6896 237.826 62.8233 237.284 63.0609 236.779C63.2984 236.259 63.6103 235.814 63.9964 235.442C64.3973 235.056 64.8576 234.759 65.3773 234.551C65.8971 234.329 66.4539 234.217 67.0479 234.217H71.7032C72.312 234.217 72.8762 234.336 73.396 234.574C73.9306 234.796 74.3983 235.108 74.7992 235.509C75.2002 235.895 75.512 236.356 75.7347 236.89C75.9723 237.425 76.0911 237.996 76.0911 238.605V242.615H71.7032V238.605H62.6599Z" fill="white"/>
<path d="M87.0223 247.582C87.0223 246.973 87.1337 246.409 87.3564 245.889C87.594 245.354 87.9058 244.887 88.2919 244.486C88.6928 244.085 89.1606 243.773 89.6952 243.55C90.2297 243.313 90.794 243.194 91.388 243.194H102.703V238.605H88.381V234.217H102.703C103.312 234.217 103.884 234.336 104.418 234.574C104.953 234.796 105.413 235.108 105.799 235.509C106.2 235.895 106.512 236.356 106.735 236.89C106.972 237.425 107.091 237.996 107.091 238.605V257.939H102.703V253.93C102.659 254.479 102.51 254.999 102.258 255.489C102.005 255.979 101.679 256.41 101.278 256.781C100.892 257.137 100.446 257.419 99.9412 257.627C99.4363 257.835 98.9017 257.939 98.3375 257.939H91.388C90.794 257.939 90.2297 257.828 89.6952 257.605C89.1606 257.367 88.6928 257.056 88.2919 256.67C87.9058 256.269 87.594 255.801 87.3564 255.266C87.1337 254.732 87.0223 254.16 87.0223 253.551V247.582ZM91.388 253.551H102.703V247.582H91.388V253.551Z" fill="white"/>
<path d="M140.875 257.939H136.487V238.605H124.259V257.939H119.893V234.217H124.259V238.405C124.289 237.826 124.422 237.284 124.66 236.779C124.898 236.259 125.209 235.814 125.595 235.442C125.996 235.056 126.457 234.759 126.976 234.551C127.496 234.329 128.053 234.217 128.647 234.217H136.487C137.096 234.217 137.668 234.336 138.203 234.574C138.737 234.796 139.197 235.108 139.584 235.509C139.984 235.895 140.296 236.356 140.519 236.89C140.757 237.425 140.875 237.996 140.875 238.605V257.939Z" fill="white"/>
<path d="M167.977 253.551V248.05H157.576C156.967 248.05 156.395 247.938 155.86 247.715C155.326 247.478 154.858 247.166 154.457 246.78C154.071 246.379 153.759 245.911 153.522 245.377C153.299 244.842 153.188 244.27 153.188 243.662V238.605C153.188 237.996 153.299 237.425 153.522 236.89C153.759 236.356 154.071 235.895 154.457 235.509C154.858 235.108 155.326 234.796 155.86 234.574C156.395 234.336 156.967 234.217 157.576 234.217H171.452V238.605H157.576V243.662H167.977C168.586 243.662 169.151 243.78 169.67 244.018C170.205 244.241 170.673 244.552 171.074 244.953C171.474 245.339 171.786 245.8 172.009 246.334C172.247 246.869 172.365 247.441 172.365 248.05V253.551C172.365 254.16 172.247 254.732 172.009 255.266C171.786 255.801 171.474 256.269 171.074 256.67C170.673 257.056 170.205 257.367 169.67 257.605C169.151 257.828 168.586 257.939 167.977 257.939H153.188V253.551H167.977Z" fill="white"/>
<path d="M193.498 229.473V234.217H201.294V238.605H193.498V257.939H189.11V238.605H183.319V234.217H189.11V229.473C189.11 228.864 189.221 228.3 189.444 227.78C189.682 227.246 190.001 226.778 190.402 226.377C190.803 225.976 191.271 225.664 191.805 225.441C192.34 225.204 192.904 225.085 193.498 225.085H201.294V229.473H193.498Z" fill="white"/>
<path d="M233.229 253.551C233.229 254.16 233.111 254.732 232.873 255.266C232.65 255.801 232.339 256.269 231.938 256.67C231.552 257.056 231.091 257.367 230.557 257.605C230.037 257.828 229.473 257.939 228.864 257.939H217.081C216.487 257.939 215.923 257.828 215.388 257.605C214.853 257.367 214.386 257.056 213.985 256.67C213.599 256.269 213.287 255.801 213.049 255.266C212.827 254.732 212.715 254.16 212.715 253.551V238.605C212.715 237.996 212.827 237.425 213.049 236.89C213.287 236.356 213.599 235.895 213.985 235.509C214.386 235.108 214.853 234.796 215.388 234.574C215.923 234.336 216.487 234.217 217.081 234.217H228.864C229.473 234.217 230.037 234.336 230.557 234.574C231.091 234.796 231.552 235.108 231.938 235.509C232.339 235.895 232.65 236.356 232.873 236.89C233.111 237.425 233.229 237.996 233.229 238.605V253.551ZM217.081 238.605V253.551H228.864V238.605H217.081Z" fill="white"/>
<path d="M250.397 238.605V257.939H246.032V234.217H250.397V238.405C250.427 237.826 250.561 237.284 250.798 236.779C251.036 236.259 251.348 235.814 251.734 235.442C252.135 235.056 252.595 234.759 253.115 234.551C253.635 234.329 254.191 234.217 254.785 234.217H259.441C260.049 234.217 260.614 234.336 261.133 234.574C261.668 234.796 262.136 235.108 262.537 235.509C262.938 235.895 263.249 236.356 263.472 236.89C263.71 237.425 263.829 237.996 263.829 238.605V242.615H259.441V238.605H250.397Z" fill="white"/>
<path d="M293.559 238.605V257.939H289.171V238.605H279.125V257.939H274.76V234.217H279.125V238.405C279.155 237.826 279.289 237.284 279.526 236.779C279.764 236.259 280.076 235.814 280.462 235.442C280.863 235.056 281.323 234.759 281.843 234.551C282.363 234.329 282.919 234.217 283.513 234.217H289.171C289.75 234.217 290.3 234.329 290.819 234.551C291.339 234.759 291.799 235.056 292.2 235.442C292.601 235.814 292.92 236.259 293.158 236.779C293.41 237.284 293.544 237.826 293.559 238.405C293.589 237.826 293.715 237.284 293.938 236.779C294.175 236.259 294.487 235.814 294.873 235.442C295.274 235.056 295.734 234.759 296.254 234.551C296.774 234.329 297.331 234.217 297.925 234.217H303.582C304.191 234.217 304.763 234.336 305.297 234.574C305.832 234.796 306.292 235.108 306.678 235.509C307.079 235.895 307.391 236.356 307.614 236.89C307.851 237.425 307.97 237.996 307.97 238.605V257.939H303.582V238.605H293.559Z" fill="white"/>
<path d="M325.383 234.217V257.939H320.995V234.217H325.383ZM320.772 225.085H325.606V229.651H320.772V225.085Z" fill="white"/>
<path d="M359.39 257.939H355.002V238.605H342.774V257.939H338.408V234.217H342.774V238.405C342.803 237.826 342.937 237.284 343.175 236.779C343.412 236.259 343.724 235.814 344.11 235.442C344.511 235.056 344.971 234.759 345.491 234.551C346.011 234.329 346.568 234.217 347.162 234.217H355.002C355.611 234.217 356.183 234.336 356.717 234.574C357.252 234.796 357.712 235.108 358.098 235.509C358.499 235.895 358.811 236.356 359.034 236.89C359.271 237.425 359.39 237.996 359.39 238.605V257.939Z" fill="white"/>
<path d="M372.17 238.605C372.17 237.996 372.281 237.425 372.504 236.89C372.742 236.356 373.054 235.895 373.44 235.509C373.841 235.108 374.308 234.796 374.843 234.574C375.377 234.336 375.942 234.217 376.536 234.217H384.398C384.978 234.217 385.527 234.329 386.047 234.551C386.566 234.759 387.019 235.056 387.405 235.442C387.806 235.814 388.126 236.259 388.363 236.779C388.616 237.284 388.749 237.826 388.764 238.405V234.217H393.152V263.129C393.152 263.738 393.033 264.31 392.796 264.844C392.573 265.379 392.261 265.839 391.86 266.225C391.474 266.626 391.014 266.938 390.479 267.161C389.945 267.398 389.373 267.517 388.764 267.517H374.91V263.129H388.764V257.026H376.536C375.942 257.026 375.377 256.915 374.843 256.692C374.308 256.454 373.841 256.142 373.44 255.756C373.054 255.355 372.742 254.888 372.504 254.353C372.281 253.818 372.17 253.247 372.17 252.638V238.605ZM388.764 252.638V238.605H376.536V252.638H388.764Z" fill="white"/>
<path d="M435.106 257.939L422.788 225.998H427.688L437.623 252.282L447.579 225.998H452.457L440.139 257.939H435.106Z" fill="white"/>
<path d="M467.553 234.217V257.939H463.165V234.217H467.553ZM462.943 225.085H467.776V229.651H462.943V225.085Z" fill="white"/>
<path d="M494.9 253.551V248.05H484.499C483.89 248.05 483.318 247.938 482.783 247.715C482.249 247.478 481.781 247.166 481.38 246.78C480.994 246.379 480.682 245.911 480.445 245.377C480.222 244.842 480.111 244.27 480.111 243.662V238.605C480.111 237.996 480.222 237.425 480.445 236.89C480.682 236.356 480.994 235.895 481.38 235.509C481.781 235.108 482.249 234.796 482.783 234.574C483.318 234.336 483.89 234.217 484.499 234.217H498.375V238.605H484.499V243.662H494.9C495.509 243.662 496.074 243.78 496.593 244.018C497.128 244.241 497.596 244.552 497.997 244.953C498.397 245.339 498.709 245.8 498.932 246.334C499.17 246.869 499.288 247.441 499.288 248.05V253.551C499.288 254.16 499.17 254.732 498.932 255.266C498.709 255.801 498.397 256.269 497.997 256.67C497.596 257.056 497.128 257.367 496.593 257.605C496.074 257.828 495.509 257.939 494.9 257.939H480.111V253.551H494.9Z" fill="white"/>
<path d="M516.234 234.217V257.939H511.846V234.217H516.234ZM511.623 225.085H516.456V229.651H511.623V225.085Z" fill="white"/>
<path d="M549.773 253.551C549.773 254.16 549.654 254.732 549.416 255.266C549.194 255.801 548.882 256.269 548.481 256.67C548.095 257.056 547.635 257.367 547.1 257.605C546.58 257.828 546.016 257.939 545.407 257.939H533.624C533.03 257.939 532.466 257.828 531.931 257.605C531.397 257.367 530.929 257.056 530.528 256.67C530.142 256.269 529.83 255.801 529.593 255.266C529.37 254.732 529.258 254.16 529.258 253.551V238.605C529.258 237.996 529.37 237.425 529.593 236.89C529.83 236.356 530.142 235.895 530.528 235.509C530.929 235.108 531.397 234.796 531.931 234.574C532.466 234.336 533.03 234.217 533.624 234.217H545.407C546.016 234.217 546.58 234.336 547.1 234.574C547.635 234.796 548.095 235.108 548.481 235.509C548.882 235.895 549.194 236.356 549.416 236.89C549.654 237.425 549.773 237.996 549.773 238.605V253.551ZM533.624 238.605V253.551H545.407V238.605H533.624Z" fill="white"/>
<path d="M583.557 257.939H579.169V238.605H566.941V257.939H562.575V234.217H566.941V238.405C566.97 237.826 567.104 237.284 567.342 236.779C567.579 236.259 567.891 235.814 568.277 235.442C568.678 235.056 569.138 234.759 569.658 234.551C570.178 234.329 570.735 234.217 571.329 234.217H579.169C579.778 234.217 580.35 234.336 580.884 234.574C581.419 234.796 581.879 235.108 582.265 235.509C582.666 235.895 582.978 236.356 583.201 236.89C583.438 237.425 583.557 237.996 583.557 238.605V257.939Z" fill="white"/>
<path d="M610.659 253.551V248.05H600.257C599.648 248.05 599.077 247.938 598.542 247.715C598.008 247.478 597.54 247.166 597.139 246.78C596.753 246.379 596.441 245.911 596.203 245.377C595.981 244.842 595.869 244.27 595.869 243.662V238.605C595.869 237.996 595.981 237.425 596.203 236.89C596.441 236.356 596.753 235.895 597.139 235.509C597.54 235.108 598.008 234.796 598.542 234.574C599.077 234.336 599.648 234.217 600.257 234.217H614.134V238.605H600.257V243.662H610.659C611.268 243.662 611.832 243.78 612.352 244.018C612.887 244.241 613.354 244.552 613.755 244.953C614.156 245.339 614.468 245.8 614.691 246.334C614.928 246.869 615.047 247.441 615.047 248.05V253.551C615.047 254.16 614.928 254.732 614.691 255.266C614.468 255.801 614.156 256.269 613.755 256.67C613.354 257.056 612.887 257.367 612.352 257.605C611.832 257.828 611.268 257.939 610.659 257.939H595.869V253.551H610.659Z" fill="white"/>
<path d="M651.543 225.998V257.939H646.977V225.998H651.543Z" fill="white"/>
<path d="M685.773 257.939H681.385V238.605H669.157V257.939H664.791V234.217H669.157V238.405C669.187 237.826 669.32 237.284 669.558 236.779C669.795 236.259 670.107 235.814 670.493 235.442C670.894 235.056 671.355 234.759 671.874 234.551C672.394 234.329 672.951 234.217 673.545 234.217H681.385C681.994 234.217 682.566 234.336 683.1 234.574C683.635 234.796 684.095 235.108 684.481 235.509C684.882 235.895 685.194 236.356 685.417 236.89C685.654 237.425 685.773 237.996 685.773 238.605V257.939Z" fill="white"/>
<path d="M697.172 234.217H702.963V226.911H707.351V234.217H715.147V238.605H707.351V253.551H715.147V257.939H707.351C706.757 257.939 706.193 257.828 705.658 257.605C705.124 257.367 704.656 257.056 704.255 256.67C703.854 256.269 703.535 255.801 703.297 255.266C703.075 254.732 702.963 254.16 702.963 253.551V238.605H697.172V234.217Z" fill="white"/>
<path d="M748.464 253.551C748.464 254.16 748.345 254.732 748.107 255.266C747.885 255.801 747.573 256.269 747.172 256.67C746.786 257.056 746.325 257.367 745.791 257.605C745.271 257.828 744.707 257.939 744.098 257.939H732.315C731.721 257.939 731.157 257.828 730.622 257.605C730.088 257.367 729.62 257.056 729.219 256.67C728.833 256.269 728.521 255.801 728.283 255.266C728.061 254.732 727.949 254.16 727.949 253.551V238.605C727.949 237.996 728.061 237.425 728.283 236.89C728.521 236.356 728.833 235.895 729.219 235.509C729.62 235.108 730.088 234.796 730.622 234.574C731.157 234.336 731.721 234.217 732.315 234.217H744.098C744.707 234.217 745.271 234.336 745.791 234.574C746.325 234.796 746.786 235.108 747.172 235.509C747.573 235.895 747.885 236.356 748.107 236.89C748.345 237.425 748.464 237.996 748.464 238.605V253.551ZM732.315 238.605V253.551H744.098V238.605H732.315Z" fill="white"/>
<path d="M806.098 237.403C806.098 241.857 804.197 244.397 800.396 245.02L806.41 257.939H801.354L795.429 245.176H785.428V257.939H780.862V225.998H798.347C803.514 225.998 806.098 228.589 806.098 233.772V237.403ZM785.428 240.61H798.102C799.319 240.61 800.195 240.343 800.73 239.808C801.265 239.274 801.532 238.397 801.532 237.18V233.995C801.532 232.777 801.265 231.901 800.73 231.366C800.195 230.832 799.319 230.564 798.102 230.564H785.428V240.61Z" fill="white"/>
<path d="M838.835 248.317H823.132V253.551H838.835V257.939H823.132C822.538 257.939 821.974 257.828 821.439 257.605C820.905 257.367 820.437 257.056 820.036 256.67C819.65 256.269 819.338 255.801 819.101 255.266C818.878 254.732 818.767 254.16 818.767 253.551V238.605C818.767 237.996 818.878 237.425 819.101 236.89C819.338 236.356 819.65 235.895 820.036 235.509C820.437 235.108 820.905 234.796 821.439 234.574C821.974 234.336 822.538 234.217 823.132 234.217H834.447C835.056 234.217 835.628 234.336 836.163 234.574C836.697 234.796 837.157 235.108 837.543 235.509C837.944 235.895 838.256 236.356 838.479 236.89C838.717 237.425 838.835 237.996 838.835 238.605V248.317ZM823.132 238.605V243.929H834.447V238.605H823.132Z" fill="white"/>
<path d="M851.638 247.582C851.638 246.973 851.749 246.409 851.972 245.889C852.209 245.354 852.521 244.887 852.907 244.486C853.308 244.085 853.776 243.773 854.31 243.55C854.845 243.313 855.409 243.194 856.003 243.194H867.318V238.605H852.996V234.217H867.318C867.927 234.217 868.499 234.336 869.034 234.574C869.568 234.796 870.028 235.108 870.415 235.509C870.815 235.895 871.127 236.356 871.35 236.89C871.588 237.425 871.706 237.996 871.706 238.605V257.939H867.318V253.93C867.274 254.479 867.125 254.999 866.873 255.489C866.621 255.979 866.294 256.41 865.893 256.781C865.507 257.137 865.061 257.419 864.556 257.627C864.052 257.835 863.517 257.939 862.953 257.939H856.003C855.409 257.939 854.845 257.828 854.31 257.605C853.776 257.367 853.308 257.056 852.907 256.67C852.521 256.269 852.209 255.801 851.972 255.266C851.749 254.732 851.638 254.16 851.638 253.551V247.582ZM856.003 253.551H867.318V247.582H856.003V253.551Z" fill="white"/>
<path d="M888.874 225.085V257.939H884.509V225.085H888.874Z" fill="white"/>
<path d="M906.265 234.217V257.939H901.877V234.217H906.265ZM901.654 225.085H906.488V229.651H901.654V225.085Z" fill="white"/>
<path d="M917.909 234.217H923.7V226.911H928.088V234.217H935.884V238.605H928.088V253.551H935.884V257.939H928.088C927.494 257.939 926.93 257.828 926.395 257.605C925.861 257.367 925.393 257.056 924.992 256.67C924.591 256.269 924.272 255.801 924.034 255.266C923.811 254.732 923.7 254.16 923.7 253.551V238.605H917.909V234.217Z" fill="white"/>
<path d="M950.29 267.517L955.257 255.801L945.946 234.217H950.557L957.484 250.544L964.412 234.217H969.022L954.656 267.517H950.29Z" fill="white"/>
<rect x="29.4824" y="200.208" width="945.518" height="4.87275" rx="2.43638" fill="white"/>
<path d="M51.2869 158.933H37.3809V61.6582H51.2869V158.933Z" fill="white"/>
<path d="M88.5958 158.933H74.6897V61.6582H81.6088C86.1311 61.6582 90.9248 62.2461 95.9897 63.4219C101.1 64.5977 106.301 66.2936 111.592 68.5095C116.883 70.7254 122.151 73.4162 127.397 76.5818C132.688 79.7022 137.798 83.2522 142.728 87.2319C147.657 91.2115 152.292 95.5529 156.634 100.256C160.975 104.914 164.864 109.889 168.301 115.18V61.6582H182.207V158.933H168.301C168.301 151.788 167.057 144.914 164.57 138.311C162.083 131.664 158.759 125.4 154.599 119.521C150.438 113.642 145.644 108.238 140.218 103.309C134.791 98.3341 129.115 93.9701 123.191 90.2166C117.312 86.4631 111.388 83.3879 105.419 80.9911C99.4493 78.549 93.8416 76.921 88.5958 76.107V158.933Z" fill="white"/>
<path d="M307.429 158.933H244.818C238.08 158.933 231.952 157.667 226.435 155.134C220.918 152.602 216.192 149.142 212.258 144.756C208.369 140.369 205.361 135.214 203.236 129.289C201.11 123.365 200.048 117.034 200.048 110.296C200.048 103.603 201.11 97.3166 203.236 91.4376C205.361 85.5134 208.369 80.3579 212.258 75.9713C216.192 71.5394 220.918 68.0573 226.435 65.5248C231.952 62.9471 238.08 61.6582 244.818 61.6582H307.429V75.5643H244.818C240.025 75.5643 235.706 76.4914 231.862 78.3455C228.063 80.1544 224.83 82.6417 222.162 85.8073C219.539 88.9277 217.504 92.5908 216.056 96.7965C214.655 101.002 213.954 105.502 213.954 110.296C213.954 115.089 214.655 119.612 216.056 123.863C217.504 128.068 219.539 131.754 222.162 134.92C224.83 138.04 228.063 140.505 231.862 142.314C235.706 144.122 240.025 145.027 244.818 145.027H293.523V117.283H234.643V103.376H307.429V158.933Z" fill="white"/>
<path d="M428.446 158.933H327.847V61.6582H428.446V75.5643H341.753V145.027H428.446V158.933ZM416.643 117.283H348.673V103.376H416.643V117.283Z" fill="white"/>
<path d="M459.65 158.933H445.744V61.6582H452.663C457.185 61.6582 461.979 62.2461 467.043 63.4219C472.154 64.5977 477.354 66.2936 482.645 68.5095C487.936 70.7254 493.205 73.4162 498.451 76.5818C503.742 79.7022 508.852 83.2522 513.781 87.2319C518.711 91.2115 523.346 95.5529 527.687 100.256C532.029 104.914 535.918 109.889 539.355 115.18V61.6582H553.261V158.933H539.355C539.355 151.788 538.111 144.914 535.624 138.311C533.137 131.664 529.813 125.4 525.652 119.521C521.492 113.642 516.698 108.238 511.271 103.309C505.845 98.3341 500.169 93.9701 494.245 90.2166C488.366 86.4631 482.442 83.3879 476.472 80.9911C470.503 78.549 464.895 76.921 459.65 76.107V158.933Z" fill="white"/>
<path d="M837.148 61.6582L837.012 110.296C837.012 114.818 836.424 119.159 835.248 123.32C834.118 127.435 832.49 131.302 830.364 134.92C828.284 138.492 825.751 141.771 822.767 144.756C819.827 147.695 816.549 150.228 812.931 152.353C809.358 154.433 805.514 156.061 801.399 157.237C797.284 158.368 792.987 158.933 788.51 158.933H778.267C773.79 158.933 769.472 158.368 765.311 157.237C761.196 156.061 757.329 154.411 753.711 152.285C750.139 150.16 746.883 147.627 743.943 144.688C741.004 141.703 738.471 138.424 736.346 134.852C734.266 131.234 732.637 127.367 731.462 123.252C730.331 119.092 729.766 114.773 729.766 110.296V61.6582H743.672V110.296C743.672 115.089 744.576 119.612 746.385 123.863C748.194 128.068 750.659 131.754 753.779 134.92C756.945 138.04 760.63 140.505 764.836 142.314C769.042 144.122 773.519 145.027 778.267 145.027H788.51C793.304 145.027 797.804 144.122 802.009 142.314C806.215 140.505 809.878 138.04 812.999 134.92C816.119 131.754 818.584 128.068 820.392 123.863C822.201 119.612 823.106 115.089 823.106 110.296V61.6582H837.148Z" fill="white"/>
<path d="M964.608 131.121C964.608 135.01 963.885 138.65 962.438 142.042C960.99 145.389 959.001 148.328 956.468 150.861C953.981 153.348 951.041 155.315 947.65 156.762C944.303 158.209 940.708 158.933 936.864 158.933H852.342V145.027H936.864C938.809 145.027 940.618 144.665 942.291 143.942C943.964 143.218 945.411 142.223 946.632 140.957C947.898 139.691 948.893 138.221 949.617 136.548C950.34 134.829 950.702 133.02 950.702 131.121C950.702 129.221 950.34 127.435 949.617 125.762C948.893 124.089 947.898 122.619 946.632 121.353C945.411 120.086 943.964 119.092 942.291 118.368C940.618 117.644 938.809 117.283 936.864 117.283H880.155C876.356 117.283 872.761 116.559 869.369 115.112C865.977 113.665 863.015 111.698 860.483 109.21C857.995 106.678 856.006 103.716 854.513 100.324C853.066 96.9322 852.342 93.3144 852.342 89.4704C852.342 85.6717 853.066 82.0764 854.513 78.6847C856.006 75.293 857.995 72.3535 860.483 69.8662C863.015 67.3337 865.977 65.3439 869.369 63.8967C872.761 62.4044 876.356 61.6582 880.155 61.6582H957.689V75.5643H880.155C878.255 75.5643 876.446 75.9261 874.728 76.6497C873.055 77.3732 871.585 78.3681 870.319 79.6344C869.052 80.9006 868.057 82.393 867.334 84.1115C866.61 85.7847 866.249 87.571 866.249 89.4704C866.249 91.3698 866.61 93.1787 867.334 94.8972C868.057 96.5704 869.052 98.0402 870.319 99.3064C871.585 100.573 873.055 101.568 874.728 102.291C876.446 103.015 878.255 103.376 880.155 103.376H936.864C940.708 103.376 944.303 104.123 947.65 105.615C951.041 107.062 953.981 109.052 956.468 111.584C959.001 114.072 960.99 117.011 962.438 120.403C963.885 123.749 964.608 127.322 964.608 131.121Z" fill="white"/>
<path d="M634.798 174.178C599.548 170.694 572.083 142.647 572.083 108.606C572.083 84.1823 586.205 62.8593 607.184 51.4661C615.19 46.9715 621.899 43.6615 627.125 33C628.682 39.6896 628.756 50.0027 622.751 64.462C617.08 78.085 621.269 87.3878 628.015 91.8823C634.761 96.3769 652.774 93.938 655.851 79.6529C659.854 61.0823 634.093 58.5041 633.056 43.557C636.095 43.4176 639.913 42.8253 642.211 42.686C680.87 40.3864 712.376 72.1968 712.376 108.641C712.376 132.368 698.773 152.785 679.054 164.806C668.861 171.008 664.265 179.091 662.597 189.125C647.103 143.901 658.297 106.446 667.86 84.6004C654.035 91.4294 632.277 109.826 613.337 112.613C613.337 112.613 628.497 115.017 624.716 130.591C620.935 146.131 625.828 163.9 634.798 174.178Z" fill="url(#paint0_linear_249_351)"/>
<path d="M624.713 130.556C627.826 117.734 618.3 113.483 613.482 112.542C600.064 116.619 587.165 118.849 572.599 116.654C576.528 147.001 602.362 170.972 634.794 174.177C625.825 163.899 620.932 146.13 624.713 130.556Z" fill="url(#paint1_linear_249_351)"/>
<path d="M667.918 84.5645C656.02 110.417 648.162 146.861 662.655 189.089C664.286 179.02 668.919 170.972 679.112 164.77C698.831 152.75 712.434 132.332 712.434 108.605C712.434 95.5396 708.356 83.0314 701.388 72.5093C690.305 75.9586 680.409 77.7704 667.918 84.5645Z" fill="url(#paint2_linear_249_351)"/>
<defs>
<linearGradient id="paint0_linear_249_351" x1="602.667" y1="14.3055" x2="669.538" y2="188.999" gradientUnits="userSpaceOnUse">
<stop offset="0.11631" stop-color="#1DBAE4"/>
<stop offset="1" stop-color="#1DBAE4" stop-opacity="0"/>
</linearGradient>
<linearGradient id="paint1_linear_249_351" x1="543.525" y1="88.9814" x2="681.83" y2="205.086" gradientUnits="userSpaceOnUse">
<stop stop-color="white"/>
<stop offset="0.1215" stop-color="#EFBE3C"/>
<stop offset="0.1759" stop-color="#EEBA45"/>
<stop offset="0.2667" stop-color="#EEAF5A"/>
<stop offset="0.3827" stop-color="#ED9C71"/>
<stop offset="0.5196" stop-color="#ED8287"/>
<stop offset="0.6724" stop-color="#EE5A98"/>
<stop offset="0.6966" stop-color="#EF519A"/>
</linearGradient>
<linearGradient id="paint2_linear_249_351" x1="575.043" y1="51.466" x2="713.348" y2="167.571" gradientUnits="userSpaceOnUse">
<stop stop-color="white"/>
<stop offset="0.225" stop-color="#EFBE3C"/>
<stop offset="0.3127" stop-color="#EEBD40"/>
<stop offset="0.3921" stop-color="#EEB84A"/>
<stop offset="0.4683" stop-color="#EEB059"/>
<stop offset="0.5425" stop-color="#EDA469"/>
<stop offset="0.6154" stop-color="#ED9677"/>
<stop offset="0.6872" stop-color="#ED8386"/>
<stop offset="0.7568" stop-color="#ED6B92"/>
<stop offset="0.8079" stop-color="#EF519A"/>
</linearGradient>
</defs>
</svg>
