<svg width="1000" height="300" viewBox="0 0 1000 300" fill="none" xmlns="http://www.w3.org/2000/svg">
<rect width="1000" height="300" fill="none"/>
<path d="M50.667 162H37.2539V68.1738H50.667V162ZM86.6533 162H73.2402V68.1738H79.9141C84.276 68.1738 88.8997 68.7409 93.7852 69.875C98.7142 71.0091 103.73 72.6449 108.834 74.7822C113.938 76.9196 119.019 79.515 124.079 82.5684C129.183 85.5781 134.112 89.0023 138.866 92.8408C143.621 96.6794 148.092 100.867 152.279 105.403C156.467 109.896 160.218 114.694 163.533 119.798V68.1738H176.946V162H163.533C163.533 155.108 162.334 148.478 159.935 142.109C157.535 135.697 154.329 129.656 150.316 123.985C146.303 118.315 141.68 113.102 136.445 108.348C131.211 103.549 125.737 99.3402 120.022 95.7197C114.352 92.0993 108.638 89.1331 102.88 86.8213C97.1221 84.4658 91.7132 82.8955 86.6533 82.1104V162ZM297.729 162H237.338C230.839 162 224.928 160.779 219.606 158.336C214.285 155.893 209.727 152.556 205.932 148.325C202.18 144.094 199.28 139.121 197.229 133.407C195.179 127.693 194.154 121.586 194.154 115.087C194.154 108.631 195.179 102.568 197.229 96.8975C199.28 91.1833 202.18 86.2106 205.932 81.9795C209.727 77.7048 214.285 74.346 219.606 71.9033C224.928 69.417 230.839 68.1738 237.338 68.1738H297.729V81.5869H237.338C232.714 81.5869 228.549 82.4811 224.841 84.2695C221.177 86.0143 218.058 88.4134 215.484 91.4668C212.954 94.4766 210.992 98.0098 209.596 102.066C208.243 106.123 207.567 110.463 207.567 115.087C207.567 119.711 208.243 124.073 209.596 128.173C210.992 132.229 212.954 135.785 215.484 138.838C218.058 141.848 221.177 144.225 224.841 145.97C228.549 147.715 232.714 148.587 237.338 148.587H284.316V121.826H227.523V108.413H297.729V162ZM414.456 162H317.424V68.1738H414.456V81.5869H330.837V148.587H414.456V162ZM403.071 121.826H337.511V108.413H403.071V121.826ZM444.554 162H431.141V68.1738H437.814C442.176 68.1738 446.8 68.7409 451.686 69.875C456.615 71.0091 461.631 72.6449 466.734 74.7822C471.838 76.9196 476.92 79.515 481.979 82.5684C487.083 85.5781 492.012 89.0023 496.767 92.8408C501.521 96.6794 505.992 100.867 510.18 105.403C514.367 109.896 518.118 114.694 521.434 119.798V68.1738H534.847V162H521.434C521.434 155.108 520.234 148.478 517.835 142.109C515.436 135.697 512.23 129.656 508.217 123.985C504.204 118.315 499.58 113.102 494.346 108.348C489.111 103.549 483.637 99.3402 477.923 95.7197C472.252 92.0993 466.538 89.1331 460.78 86.8213C455.022 84.4658 449.614 82.8955 444.554 82.1104V162ZM570.833 162H557.42V68.1738H570.833V162ZM844.656 68.1738L844.525 115.087C844.525 119.449 843.958 123.636 842.824 127.649C841.734 131.619 840.163 135.348 838.113 138.838C836.107 142.284 833.664 145.446 830.785 148.325C827.95 151.16 824.787 153.603 821.298 155.653C817.852 157.66 814.144 159.23 810.175 160.364C806.205 161.455 802.062 162 797.743 162H787.863C783.545 162 779.379 161.455 775.366 160.364C771.397 159.23 767.667 157.638 764.178 155.588C760.732 153.538 757.591 151.095 754.756 148.26C751.921 145.381 749.478 142.218 747.428 138.772C745.421 135.283 743.851 131.553 742.717 127.584C741.626 123.571 741.081 119.405 741.081 115.087V68.1738H754.494V115.087C754.494 119.711 755.367 124.073 757.111 128.173C758.856 132.229 761.233 135.785 764.243 138.838C767.297 141.848 770.852 144.225 774.908 145.97C778.965 147.715 783.283 148.587 787.863 148.587H797.743C802.367 148.587 806.707 147.715 810.764 145.97C814.82 144.225 818.354 141.848 821.363 138.838C824.373 135.785 826.75 132.229 828.495 128.173C830.24 124.073 831.112 119.711 831.112 115.087V68.1738H844.525H844.656ZM967.599 135.174C967.599 138.925 966.901 142.437 965.505 145.708C964.109 148.936 962.19 151.771 959.747 154.214C957.348 156.613 954.513 158.51 951.241 159.906C948.013 161.302 944.546 162 940.838 162H859.312V148.587H940.838C942.714 148.587 944.458 148.238 946.072 147.54C947.686 146.842 949.082 145.882 950.26 144.661C951.481 143.44 952.441 142.022 953.139 140.408C953.837 138.751 954.186 137.006 954.186 135.174C954.186 133.342 953.837 131.619 953.139 130.005C952.441 128.391 951.481 126.973 950.26 125.752C949.082 124.531 947.686 123.571 946.072 122.873C944.458 122.175 942.714 121.826 940.838 121.826H886.139C882.475 121.826 879.007 121.128 875.735 119.732C872.464 118.337 869.607 116.439 867.164 114.04C864.765 111.597 862.846 108.74 861.406 105.469C860.01 102.197 859.312 98.7077 859.312 95C859.312 91.3359 860.01 87.8682 861.406 84.5967C862.846 81.3252 864.765 78.4899 867.164 76.0908C869.607 73.6481 872.464 71.7288 875.735 70.333C879.007 68.8936 882.475 68.1738 886.139 68.1738H960.925V81.5869H886.139C884.307 81.5869 882.562 81.9359 880.904 82.6338C879.29 83.3317 877.873 84.2913 876.651 85.5127C875.43 86.734 874.47 88.1735 873.772 89.8311C873.075 91.445 872.726 93.168 872.726 95C872.726 96.832 873.075 98.5768 873.772 100.234C874.47 101.848 875.43 103.266 876.651 104.487C877.873 105.709 879.29 106.668 880.904 107.366C882.562 108.064 884.307 108.413 886.139 108.413H940.838C944.546 108.413 948.013 109.133 951.241 110.572C954.513 111.968 957.348 113.887 959.747 116.33C962.19 118.729 964.109 121.564 965.505 124.836C966.901 128.064 967.599 131.51 967.599 135.174Z" fill="white"/>
<path d="M31.6758 228.688H56.3184V233.092H46.1992V259.496H41.7949V233.092H31.6758V228.688ZM68.0007 240.848V259.496H63.7898V236.615H68.0007V240.654C68.0293 240.096 68.1583 239.573 68.3874 239.086C68.6166 238.585 68.9174 238.155 69.2898 237.797C69.6765 237.424 70.1205 237.138 70.6218 236.938C71.1231 236.723 71.6602 236.615 72.2331 236.615H76.7234C77.3106 236.615 77.8549 236.73 78.3562 236.959C78.8718 237.174 79.323 237.475 79.7097 237.861C80.0964 238.234 80.3972 238.678 80.612 239.193C80.8412 239.709 80.9558 240.26 80.9558 240.848V244.715H76.7234V240.848H68.0007ZM91.4995 249.506C91.4995 248.919 91.6069 248.374 91.8217 247.873C92.0509 247.357 92.3517 246.906 92.7241 246.52C93.1108 246.133 93.562 245.832 94.0776 245.617C94.5932 245.388 95.1375 245.273 95.7104 245.273H106.624V240.848H92.81V236.615H106.624C107.212 236.615 107.763 236.73 108.279 236.959C108.794 237.174 109.238 237.475 109.611 237.861C109.998 238.234 110.298 238.678 110.513 239.193C110.742 239.709 110.857 240.26 110.857 240.848V259.496H106.624V255.629C106.581 256.159 106.438 256.66 106.195 257.133C105.951 257.605 105.636 258.021 105.249 258.379C104.877 258.723 104.447 258.995 103.96 259.195C103.473 259.396 102.958 259.496 102.414 259.496H95.7104C95.1375 259.496 94.5932 259.389 94.0776 259.174C93.562 258.945 93.1108 258.644 92.7241 258.271C92.3517 257.885 92.0509 257.434 91.8217 256.918C91.6069 256.402 91.4995 255.851 91.4995 255.264V249.506ZM95.7104 255.264H106.624V249.506H95.7104V255.264ZM143.444 259.496H139.211V240.848H127.416V259.496H123.205V236.615H127.416V240.654C127.445 240.096 127.574 239.573 127.803 239.086C128.032 238.585 128.333 238.155 128.705 237.797C129.092 237.424 129.536 237.138 130.037 236.938C130.539 236.723 131.076 236.615 131.649 236.615H139.211C139.798 236.615 140.35 236.73 140.865 236.959C141.381 237.174 141.825 237.475 142.197 237.861C142.584 238.234 142.885 238.678 143.1 239.193C143.329 239.709 143.444 240.26 143.444 240.848V259.496ZM169.585 255.264V249.957H159.552C158.964 249.957 158.413 249.85 157.897 249.635C157.382 249.406 156.931 249.105 156.544 248.732C156.171 248.346 155.871 247.895 155.641 247.379C155.427 246.863 155.319 246.312 155.319 245.725V240.848C155.319 240.26 155.427 239.709 155.641 239.193C155.871 238.678 156.171 238.234 156.544 237.861C156.931 237.475 157.382 237.174 157.897 236.959C158.413 236.73 158.964 236.615 159.552 236.615H172.936V240.848H159.552V245.725H169.585C170.172 245.725 170.716 245.839 171.218 246.068C171.733 246.283 172.184 246.584 172.571 246.971C172.958 247.343 173.259 247.787 173.474 248.303C173.703 248.818 173.817 249.37 173.817 249.957V255.264C173.817 255.851 173.703 256.402 173.474 256.918C173.259 257.434 172.958 257.885 172.571 258.271C172.184 258.644 171.733 258.945 171.218 259.174C170.716 259.389 170.172 259.496 169.585 259.496H155.319V255.264H169.585ZM194.201 232.039V236.615H201.72V240.848H194.201V259.496H189.968V240.848H184.382V236.615H189.968V232.039C189.968 231.452 190.076 230.908 190.291 230.406C190.52 229.891 190.828 229.439 191.214 229.053C191.601 228.666 192.052 228.365 192.568 228.15C193.084 227.921 193.628 227.807 194.201 227.807H201.72V232.039H194.201ZM232.524 255.264C232.524 255.851 232.409 256.402 232.18 256.918C231.965 257.434 231.664 257.885 231.278 258.271C230.905 258.644 230.461 258.945 229.946 259.174C229.444 259.389 228.9 259.496 228.313 259.496H216.948C216.375 259.496 215.83 259.389 215.315 259.174C214.799 258.945 214.348 258.644 213.961 258.271C213.589 257.885 213.288 257.434 213.059 256.918C212.844 256.402 212.737 255.851 212.737 255.264V240.848C212.737 240.26 212.844 239.709 213.059 239.193C213.288 238.678 213.589 238.234 213.961 237.861C214.348 237.475 214.799 237.174 215.315 236.959C215.83 236.73 216.375 236.615 216.948 236.615H228.313C228.9 236.615 229.444 236.73 229.946 236.959C230.461 237.174 230.905 237.475 231.278 237.861C231.664 238.234 231.965 238.678 232.18 239.193C232.409 239.709 232.524 240.26 232.524 240.848V255.264ZM216.948 240.848V255.264H228.313V240.848H216.948ZM249.083 240.848V259.496H244.872V236.615H249.083V240.654C249.112 240.096 249.241 239.573 249.47 239.086C249.699 238.585 250 238.155 250.372 237.797C250.759 237.424 251.203 237.138 251.704 236.938C252.205 236.723 252.743 236.615 253.315 236.615H257.806C258.393 236.615 258.937 236.73 259.439 236.959C259.954 237.174 260.405 237.475 260.792 237.861C261.179 238.234 261.48 238.678 261.694 239.193C261.924 239.709 262.038 240.26 262.038 240.848V244.715H257.806V240.848H249.083ZM290.715 240.848V259.496H286.482V240.848H276.793V259.496H272.582V236.615H276.793V240.654C276.821 240.096 276.95 239.573 277.179 239.086C277.409 238.585 277.709 238.155 278.082 237.797C278.469 237.424 278.913 237.138 279.414 236.938C279.915 236.723 280.452 236.615 281.025 236.615H286.482C287.041 236.615 287.571 236.723 288.072 236.938C288.573 237.138 289.017 237.424 289.404 237.797C289.791 238.155 290.099 238.585 290.328 239.086C290.571 239.573 290.7 240.096 290.715 240.654C290.743 240.096 290.865 239.573 291.08 239.086C291.309 238.585 291.61 238.155 291.982 237.797C292.369 237.424 292.813 237.138 293.314 236.938C293.816 236.723 294.353 236.615 294.926 236.615H300.383C300.97 236.615 301.521 236.73 302.037 236.959C302.553 237.174 302.997 237.475 303.369 237.861C303.756 238.234 304.056 238.678 304.271 239.193C304.5 239.709 304.615 240.26 304.615 240.848V259.496H300.383V240.848H290.715ZM321.411 236.615V259.496H317.178V236.615H321.411ZM316.963 227.807H321.625V232.211H316.963V227.807ZM354.212 259.496H349.98V240.848H338.185V259.496H333.974V236.615H338.185V240.654C338.213 240.096 338.342 239.573 338.571 239.086C338.801 238.585 339.101 238.155 339.474 237.797C339.861 237.424 340.305 237.138 340.806 236.938C341.307 236.723 341.844 236.615 342.417 236.615H349.98C350.567 236.615 351.118 236.73 351.634 236.959C352.15 237.174 352.594 237.475 352.966 237.861C353.353 238.234 353.654 238.678 353.868 239.193C354.098 239.709 354.212 240.26 354.212 240.848V259.496ZM366.539 240.848C366.539 240.26 366.646 239.709 366.861 239.193C367.09 238.678 367.391 238.234 367.764 237.861C368.15 237.475 368.602 237.174 369.117 236.959C369.633 236.73 370.177 236.615 370.75 236.615H378.334C378.893 236.615 379.422 236.723 379.924 236.938C380.425 237.138 380.862 237.424 381.234 237.797C381.621 238.155 381.929 238.585 382.158 239.086C382.402 239.573 382.531 240.096 382.545 240.654V236.615H386.777V264.502C386.777 265.089 386.663 265.641 386.434 266.156C386.219 266.672 385.918 267.116 385.531 267.488C385.159 267.875 384.715 268.176 384.199 268.391C383.684 268.62 383.132 268.734 382.545 268.734H369.182V264.502H382.545V258.615H370.75C370.177 258.615 369.633 258.508 369.117 258.293C368.602 258.064 368.15 257.763 367.764 257.391C367.391 257.004 367.09 256.553 366.861 256.037C366.646 255.521 366.539 254.97 366.539 254.383V240.848ZM382.545 254.383V240.848H370.75V254.383H382.545ZM427.244 259.496L415.363 228.688H420.089L429.671 254.039L439.275 228.688H443.98L432.099 259.496H427.244ZM458.541 236.615V259.496H454.309V236.615H458.541ZM454.094 227.807H458.756V232.211H454.094V227.807ZM484.919 255.264V249.957H474.886C474.298 249.957 473.747 249.85 473.231 249.635C472.716 249.406 472.264 249.105 471.878 248.732C471.505 248.346 471.205 247.895 470.975 247.379C470.761 246.863 470.653 246.312 470.653 245.725V240.848C470.653 240.26 470.761 239.709 470.975 239.193C471.205 238.678 471.505 238.234 471.878 237.861C472.264 237.475 472.716 237.174 473.231 236.959C473.747 236.73 474.298 236.615 474.886 236.615H488.27V240.848H474.886V245.725H484.919C485.506 245.725 486.05 245.839 486.552 246.068C487.067 246.283 487.518 246.584 487.905 246.971C488.292 247.343 488.593 247.787 488.807 248.303C489.037 248.818 489.151 249.37 489.151 249.957V255.264C489.151 255.851 489.037 256.402 488.807 256.918C488.593 257.434 488.292 257.885 487.905 258.271C487.518 258.644 487.067 258.945 486.552 259.174C486.05 259.389 485.506 259.496 484.919 259.496H470.653V255.264H484.919ZM505.496 236.615V259.496H501.263V236.615H505.496ZM501.048 227.807H505.71V232.211H501.048V227.807ZM537.846 255.264C537.846 255.851 537.731 256.402 537.502 256.918C537.287 257.434 536.987 257.885 536.6 258.271C536.227 258.644 535.783 258.945 535.268 259.174C534.767 259.389 534.222 259.496 533.635 259.496H522.27C521.697 259.496 521.153 259.389 520.637 259.174C520.121 258.945 519.67 258.644 519.283 258.271C518.911 257.885 518.61 257.434 518.381 256.918C518.166 256.402 518.059 255.851 518.059 255.264V240.848C518.059 240.26 518.166 239.709 518.381 239.193C518.61 238.678 518.911 238.234 519.283 237.861C519.67 237.475 520.121 237.174 520.637 236.959C521.153 236.73 521.697 236.615 522.27 236.615H533.635C534.222 236.615 534.767 236.73 535.268 236.959C535.783 237.174 536.227 237.475 536.6 237.861C536.987 238.234 537.287 238.678 537.502 239.193C537.731 239.709 537.846 240.26 537.846 240.848V255.264ZM522.27 240.848V255.264H533.635V240.848H522.27ZM570.433 259.496H566.2V240.848H554.405V259.496H550.194V236.615H554.405V240.654C554.434 240.096 554.563 239.573 554.792 239.086C555.021 238.585 555.322 238.155 555.694 237.797C556.081 237.424 556.525 237.138 557.026 236.938C557.528 236.723 558.065 236.615 558.638 236.615H566.2C566.787 236.615 567.339 236.73 567.854 236.959C568.37 237.174 568.814 237.475 569.186 237.861C569.573 238.234 569.874 238.678 570.089 239.193C570.318 239.709 570.433 240.26 570.433 240.848V259.496ZM596.574 255.264V249.957H586.541C585.953 249.957 585.402 249.85 584.886 249.635C584.371 249.406 583.92 249.105 583.533 248.732C583.161 248.346 582.86 247.895 582.631 247.379C582.416 246.863 582.308 246.312 582.308 245.725V240.848C582.308 240.26 582.416 239.709 582.631 239.193C582.86 238.678 583.161 238.234 583.533 237.861C583.92 237.475 584.371 237.174 584.886 236.959C585.402 236.73 585.953 236.615 586.541 236.615H599.925V240.848H586.541V245.725H596.574C597.161 245.725 597.705 245.839 598.207 246.068C598.722 246.283 599.174 246.584 599.56 246.971C599.947 247.343 600.248 247.787 600.463 248.303C600.692 248.818 600.806 249.37 600.806 249.957V255.264C600.806 255.851 600.692 256.402 600.463 256.918C600.248 257.434 599.947 257.885 599.56 258.271C599.174 258.644 598.722 258.945 598.207 259.174C597.705 259.389 597.161 259.496 596.574 259.496H582.308V255.264H596.574ZM636.009 228.688V259.496H631.605V228.688H636.009ZM669.025 259.496H664.793V240.848H652.998V259.496H648.787V236.615H652.998V240.654C653.027 240.096 653.155 239.573 653.385 239.086C653.614 238.585 653.915 238.155 654.287 237.797C654.674 237.424 655.118 237.138 655.619 236.938C656.12 236.723 656.657 236.615 657.23 236.615H664.793C665.38 236.615 665.932 236.73 666.447 236.959C666.963 237.174 667.407 237.475 667.779 237.861C668.166 238.234 668.467 238.678 668.682 239.193C668.911 239.709 669.025 240.26 669.025 240.848V259.496ZM680.02 236.615H685.606V229.568H689.838V236.615H697.358V240.848H689.838V255.264H697.358V259.496H689.838C689.266 259.496 688.721 259.389 688.206 259.174C687.69 258.945 687.239 258.644 686.852 258.271C686.465 257.885 686.157 257.434 685.928 256.918C685.713 256.402 685.606 255.851 685.606 255.264V240.848H680.02V236.615ZM729.493 255.264C729.493 255.851 729.379 256.402 729.15 256.918C728.935 257.434 728.634 257.885 728.247 258.271C727.875 258.644 727.431 258.945 726.915 259.174C726.414 259.389 725.87 259.496 725.283 259.496H713.917C713.344 259.496 712.8 259.389 712.284 259.174C711.769 258.945 711.318 258.644 710.931 258.271C710.559 257.885 710.258 257.434 710.029 256.918C709.814 256.402 709.706 255.851 709.706 255.264V240.848C709.706 240.26 709.814 239.709 710.029 239.193C710.258 238.678 710.559 238.234 710.931 237.861C711.318 237.475 711.769 237.174 712.284 236.959C712.8 236.73 713.344 236.615 713.917 236.615H725.283C725.87 236.615 726.414 236.73 726.915 236.959C727.431 237.174 727.875 237.475 728.247 237.861C728.634 238.234 728.935 238.678 729.15 239.193C729.379 239.709 729.493 240.26 729.493 240.848V255.264ZM713.917 240.848V255.264H725.283V240.848H713.917ZM785.085 239.688C785.085 243.984 783.251 246.434 779.585 247.035L785.385 259.496H780.509L774.794 247.186H765.147V259.496H760.743V228.688H777.608C782.593 228.688 785.085 231.187 785.085 236.186V239.688ZM765.147 242.781H777.372C778.546 242.781 779.391 242.523 779.907 242.008C780.423 241.492 780.68 240.647 780.68 239.473V236.4C780.68 235.226 780.423 234.381 779.907 233.865C779.391 233.35 778.546 233.092 777.372 233.092H765.147V242.781ZM816.662 250.215H801.515V255.264H816.662V259.496H801.515C800.942 259.496 800.398 259.389 799.882 259.174C799.367 258.945 798.915 258.644 798.529 258.271C798.156 257.885 797.856 257.434 797.626 256.918C797.412 256.402 797.304 255.851 797.304 255.264V240.848C797.304 240.26 797.412 239.709 797.626 239.193C797.856 238.678 798.156 238.234 798.529 237.861C798.915 237.475 799.367 237.174 799.882 236.959C800.398 236.73 800.942 236.615 801.515 236.615H812.429C813.016 236.615 813.568 236.73 814.083 236.959C814.599 237.174 815.043 237.475 815.415 237.861C815.802 238.234 816.103 238.678 816.318 239.193C816.547 239.709 816.662 240.26 816.662 240.848V250.215ZM801.515 240.848V245.982H812.429V240.848H801.515ZM829.01 249.506C829.01 248.919 829.117 248.374 829.332 247.873C829.561 247.357 829.862 246.906 830.235 246.52C830.621 246.133 831.072 245.832 831.588 245.617C832.104 245.388 832.648 245.273 833.221 245.273H844.135V240.848H830.32V236.615H844.135C844.722 236.615 845.274 236.73 845.789 236.959C846.305 237.174 846.749 237.475 847.121 237.861C847.508 238.234 847.809 238.678 848.024 239.193C848.253 239.709 848.367 240.26 848.367 240.848V259.496H844.135V255.629C844.092 256.159 843.949 256.66 843.705 257.133C843.462 257.605 843.147 258.021 842.76 258.379C842.388 258.723 841.958 258.995 841.471 259.195C840.984 259.396 840.468 259.496 839.924 259.496H833.221C832.648 259.496 832.104 259.389 831.588 259.174C831.072 258.945 830.621 258.644 830.235 258.271C829.862 257.885 829.561 257.434 829.332 256.918C829.117 256.402 829.01 255.851 829.01 255.264V249.506ZM833.221 255.264H844.135V249.506H833.221V255.264ZM864.927 227.807V259.496H860.716V227.807H864.927ZM881.701 236.615V259.496H877.468V236.615H881.701ZM877.254 227.807H881.916V232.211H877.254V227.807ZM892.932 236.615H898.518V229.568H902.75V236.615H910.27V240.848H902.75V255.264H910.27V259.496H902.75C902.177 259.496 901.633 259.389 901.117 259.174C900.602 258.945 900.151 258.644 899.764 258.271C899.377 257.885 899.069 257.434 898.84 256.918C898.625 256.402 898.518 255.851 898.518 255.264V240.848H892.932V236.615ZM924.165 268.734L928.956 257.434L919.976 236.615H924.423L931.105 252.363L937.786 236.615H942.233L928.376 268.734H924.165Z" fill="white"/>
<rect x="36" y="203.812" width="912" height="4.7" rx="2.35" fill="white"/>
<path d="M647.491 176.705C613.492 173.344 587 146.291 587 113.458C587 89.8995 600.621 69.3324 620.857 58.3431C628.579 54.0079 635.05 50.8153 640.091 40.5317C641.592 46.9842 641.664 56.9316 635.872 70.8783C630.402 84.0184 634.442 92.9913 640.949 97.3265C647.456 101.662 664.831 99.3093 667.798 85.5307C671.659 67.6185 646.812 65.1316 645.811 50.7145C648.743 50.58 652.425 50.0087 654.642 49.8743C691.931 47.6563 722.319 78.3389 722.319 113.491C722.319 136.377 709.199 156.07 690.179 167.665C680.347 173.647 675.914 181.443 674.305 191.122C659.361 147.501 670.158 111.374 679.382 90.3028C666.046 96.8896 645.06 114.634 626.791 117.322C626.791 117.322 641.414 119.641 637.767 134.663C634.12 149.652 638.84 166.791 647.491 176.705Z" fill="#1DBAE4"/>
<path d="M637.766 134.629C640.769 122.262 631.581 118.162 626.933 117.255C613.991 121.187 601.549 123.338 587.499 121.22C591.289 150.492 616.207 173.613 647.49 176.705C638.838 166.791 634.119 149.651 637.766 134.629Z" fill="url(#paint0_linear_249_351)"/>
<path d="M679.44 90.2689C667.963 115.205 660.384 150.357 674.363 191.088C675.936 181.376 680.405 173.613 690.237 167.631C709.256 156.037 722.377 136.343 722.377 113.457C722.377 100.855 718.445 88.7902 711.723 78.6411C701.034 81.9681 691.488 83.7157 679.44 90.2689Z" fill="url(#paint1_linear_249_351)"/>
<defs>
<linearGradient id="paint0_linear_249_351" x1="559.456" y1="94.5291" x2="692.858" y2="206.518" gradientUnits="userSpaceOnUse">
<stop stop-color="white"/>
<stop offset="0.1215" stop-color="#EFBE3C"/>
<stop offset="0.1759" stop-color="#EEBA45"/>
<stop offset="0.2667" stop-color="#EEAF5A"/>
<stop offset="0.3827" stop-color="#ED9C71"/>
<stop offset="0.5196" stop-color="#ED8287"/>
<stop offset="0.6724" stop-color="#EE5A98"/>
<stop offset="0.6966" stop-color="#EF519A"/>
</linearGradient>
<linearGradient id="paint1_linear_249_351" x1="589.857" y1="58.3439" x2="723.259" y2="170.333" gradientUnits="userSpaceOnUse">
<stop stop-color="white"/>
<stop offset="0.225" stop-color="#EFBE3C"/>
<stop offset="0.3127" stop-color="#EEBD40"/>
<stop offset="0.3921" stop-color="#EEB84A"/>
<stop offset="0.4683" stop-color="#EEB059"/>
<stop offset="0.5425" stop-color="#EDA469"/>
<stop offset="0.6154" stop-color="#ED9677"/>
<stop offset="0.6872" stop-color="#ED8386"/>
<stop offset="0.7568" stop-color="#ED6B92"/>
<stop offset="0.8079" stop-color="#EF519A"/>
</linearGradient>
</defs>
</svg>
